<?xml version="1.0" encoding="UTF-8" standalone="no"?>
<!-- Created with Inkscape (http://www.inkscape.org/) -->

<svg
   width="500"
   height="500"
   viewBox="0 0 132.29166 132.29167"
   version="1.1"
   id="svg1"
   xml:space="preserve"
   xmlns="http://www.w3.org/2000/svg"
   xmlns:svg="http://www.w3.org/2000/svg"><defs
     id="defs1" /><g
     id="layer1"><circle
       style="fill:#0f172a;fill-opacity:1;fill-rule:evenodd;stroke-width:1.25697;stroke-linecap:round;paint-order:markers stroke fill"
       id="path4"
       cx="66.145836"
       cy="66.145836"
       r="66.143044" /><path
       id="path35"
       style="fill:#5eead4;fill-opacity:1"
       d="m 65.661859,34.661885 c -19.684193,0.07163 -19.964432,0.07993 -20.685043,0.61805 -0.401781,0.300033 -0.960148,0.853027 -1.240751,1.228865 -0.492236,0.659296 -0.514555,1.479371 -0.632519,23.294186 -0.08516,15.748823 -0.03558,22.932979 0.163814,23.67349 0.361977,1.344279 1.199312,2.415883 2.246891,2.87631 0.667849,0.29348 4.542755,0.347607 21.321179,0.299207 18.612261,-0.05369 20.562442,-0.09938 21.124809,-0.497644 1.570474,-1.112201 1.490404,-0.185722 1.570964,-18.18287 0.06515,-14.555175 0.02526,-16.578999 -0.336931,-17.13177 -0.412941,-0.630227 -1.503947,-0.841228 -2.167826,-0.419096 -0.808269,0.513941 -0.876432,1.855191 -0.876432,17.243392 0,13.949064 -0.04351,15.581728 -0.418579,15.725655 C 85.01161,83.665881 47.302738,83.574504 47.13069,83.29612 46.912575,82.943204 46.621312,39.293866 46.831483,38.45648 l 0.170533,-0.679028 h 19.056718 19.057234 l 0.666626,0.666626 c 0.66626,0.666261 0.667886,0.666816 1.377177,0.16123 0.390531,-0.278373 0.937868,-0.758329 1.216463,-1.066601 0.50078,-0.554125 0.499278,-0.56823 -0.132291,-1.244886 C 87.892588,35.917382 87.157842,35.379497 86.610968,35.099062 85.651268,34.60693 84.921816,34.5918 65.661859,34.66188 Z M 41.541367,40.610359 39.039711,40.7411 c -2.918328,0.152648 -3.899596,0.560253 -4.788338,1.990576 -0.603619,0.971452 -0.623873,1.203915 -0.752926,8.539531 l -0.132808,7.540625 -3.822506,0.132291 -3.821989,0.132292 -0.500228,0.857312 c -0.99533,1.706573 -2.339533,5.930051 -2.154907,6.770646 0.241285,1.098565 2.823166,6.512588 3.49126,7.321 0.526841,0.637488 0.659866,0.661459 3.677295,0.661459 h 3.131075 l 0.132291,8.875944 c 0.146995,9.862276 0.0876,9.538763 2.024166,11.016382 l 0.976685,0.745174 11.320239,0.08578 c 10.609345,0.08064 11.330031,0.116109 11.471135,0.560689 0.243058,0.765807 1.124456,1.408669 2.188496,1.596285 1.051376,0.185383 8.602354,0.07277 10.051067,-0.149862 0.564796,-0.0868 1.107146,-0.444426 1.5875,-1.046447 l 0.729671,-0.914157 h 10.584883 c 6.123494,-4e-6 10.966553,-0.109368 11.489738,-0.259415 0.92676,-0.265791 2.204628,-1.312197 2.752804,-2.254126 0.209782,-0.360468 0.350163,-3.354874 0.440283,-9.392709 l 0.132292,-8.863541 2.960021,-0.07493 2.96055,-0.07441 0.71882,-0.851628 c 0.39538,-0.468261 1.32513,-2.097459 2.06654,-3.620451 1.75383,-3.602704 1.7443,-4.035062 -0.1819,-8.040852 l -1.48105,-3.080433 H 103.381 c -1.59986,0 -3.20925,-0.114288 -3.576006,-0.253731 l -0.666626,-0.253214 -0.07803,-7.353557 c -0.07652,-7.214816 -0.08944,-7.369443 -0.694015,-8.217069 -1.17472,-1.646986 -1.698965,-1.77252 -7.784537,-1.86707 l -5.490105,-0.08527 v 1.445907 c 0,1.07454 0.107593,1.487281 0.41858,1.60662 0.230183,0.08833 2.359974,0.160714 4.733044,0.160714 6.099185,0 5.5317,-0.866849 5.696293,8.700761 0.164676,9.572419 -0.228878,8.834572 4.816242,9.026322 l 3.48041,0.132292 1.00717,1.852083 c 0.55376,1.018646 1.00879,2.036932 1.01079,2.262911 0.006,0.566767 -1.9376,4.535382 -2.49235,5.090129 -0.37942,0.379412 -0.99916,0.452168 -3.86333,0.452168 -3.101937,0 -3.435998,0.04625 -3.685047,0.511597 -0.172888,0.323045 -0.273885,3.723672 -0.273885,9.221143 0,9.200348 -0.119022,10.28597 -1.150834,10.492383 -1.497096,0.29949 -6.990657,0.393562 -13.816211,0.236161 l -7.522538,-0.173633 v -0.692464 c 0,-1.434255 -1.429073,-2.578779 -2.570386,-2.058789 -0.533282,0.242967 -0.592678,0.483426 -0.661458,2.676322 l -0.07545,2.409155 h -3.96875 -3.96875 l -0.0708,-2.248958 c -0.06004,-1.907217 -0.155096,-2.319317 -0.624768,-2.711979 -0.703323,-0.588002 -1.081936,-0.583117 -1.831412,0.02377 -0.39306,0.318282 -0.655264,0.890805 -0.75706,1.653646 l -0.155542,1.166857 H 48.26137 c -8.25889,0 -10.577612,-0.07356 -10.847916,-0.343649 -0.264139,-0.263928 -0.374298,-2.552401 -0.47594,-9.877433 -0.125573,-9.049653 -0.158449,-9.552778 -0.645956,-9.908956 -0.37979,-0.277475 -1.393017,-0.375171 -3.889168,-0.375171 h -3.375504 l -0.66611,-0.873331 c -0.905407,-1.18705 -2.006596,-3.738486 -2.006596,-4.649329 0,-0.409834 0.386953,-1.508077 0.859896,-2.440161 l 0.859896,-1.69447 3.660242,-0.132292 3.660242,-0.132292 0.771529,-0.86403 0.771529,-0.864029 v -7.433138 -7.432622 l 1.256771,-1.159102 c 0.691224,-0.637513 1.336077,-1.160703 1.432987,-1.162203 0.09691,-0.0016 0.566968,-0.496239 1.044898,-1.099675 z m 24.664128,3.679879 -2.071192,2.233455 -2.070674,2.233972 -0.987537,-1.190108 c -2.570258,-3.096649 -2.493601,-3.043225 -4.385262,-3.043225 -1.454938,0 -1.823966,0.09834 -2.401921,0.641304 -0.375526,0.352788 -0.682645,0.788324 -0.682645,0.9679 0,0.33308 1.100745,1.768037 4.245219,5.534546 l 1.766817,2.116666 0.144694,3.250448 c 0.155182,3.492155 0.292481,3.863116 1.648478,4.450374 0.924697,0.400469 1.617015,0.258769 2.447396,-0.501261 0.557372,-0.510149 0.595312,-0.75865 0.595312,-3.897437 0,-3.083583 0.04513,-3.393007 0.56224,-3.856612 0.309209,-0.277215 1.73568,-1.961831 3.169832,-3.743957 2.375484,-2.951863 2.581596,-3.296721 2.318722,-3.873666 -0.407463,-0.894285 -1.358486,-1.322399 -2.937805,-1.322399 z m 10.933699,17.576704 c -0.187213,-0.01618 -3.097077,4.404244 -4.199227,6.378939 -0.628531,1.12612 -0.790723,1.674602 -0.65474,2.216402 0.09939,0.396015 1.235302,2.133588 2.523877,3.861263 1.288575,1.727674 2.45225,3.141411 2.586405,3.141411 0.292965,0 2.404505,-3.10669 2.404505,-3.537769 0,-0.16641 -0.669244,-1.22629 -1.487248,-2.354895 l -1.487248,-2.052071 1.354956,-2.005562 c 0.745244,-1.103122 1.354956,-2.150678 1.354956,-2.328024 0,-0.335597 -2.137849,-3.297364 -2.396236,-3.319694 z m -8.883178,0.583427 c -0.323911,-0.0085 -0.796013,0.733504 -2.599325,3.891752 -1.013234,1.774537 -1.731677,3.344349 -1.731677,3.783749 0,1.062265 0.581635,2.078882 2.871142,5.018815 l 2.005046,2.57452 0.715719,-0.68523 c 0.393518,-0.377014 0.983698,-1.19119 1.311547,-1.809192 l 0.59583,-1.123445 -1.487765,-2.200383 -1.488281,-2.200382 0.913122,-1.633492 c 0.502399,-0.898374 0.91364,-1.845438 0.91364,-2.104781 0,-0.518179 -1.461103,-3.20509 -1.885673,-3.467489 -0.04367,-0.02699 -0.08705,-0.04323 -0.133325,-0.04444 z" /></g></svg>
